<svg width="631" height="86" viewBox="0 0 631 86" fill="none" xmlns="http://www.w3.org/2000/svg">
<path d="M578.236 4.16129C578.236 6.45951 576.383 8.32258 574.098 8.32258C571.813 8.32258 569.961 6.45951 569.961 4.16129C569.961 1.86307 571.813 0 574.098 0C576.383 0 578.236 1.86307 578.236 4.16129Z" fill="white"/>
<path d="M561.686 12.4839C561.686 14.7821 559.834 16.6452 557.549 16.6452C555.264 16.6452 553.412 14.7821 553.412 12.4839C553.412 10.1857 555.264 8.32258 557.549 8.32258C559.834 8.32258 561.686 10.1857 561.686 12.4839Z" fill="white"/>
<path d="M550.654 31.9032C550.654 34.2014 548.801 36.0645 546.516 36.0645C544.231 36.0645 542.379 34.2014 542.379 31.9032C542.379 29.605 544.231 27.7419 546.516 27.7419C548.801 27.7419 550.654 29.605 550.654 31.9032Z" fill="white"/>
<path d="M552.033 51.3226C552.033 54.3869 549.563 56.871 546.516 56.871C543.47 56.871 541 54.3869 541 51.3226C541 48.2583 543.47 45.7742 546.516 45.7742C549.563 45.7742 552.033 48.2583 552.033 51.3226Z" fill="white"/>
<path d="M563 69.3548C563 73.1852 559.913 76.2903 556.105 76.2903C552.296 76.2903 549.209 73.1852 549.209 69.3548C549.209 65.5245 552.296 62.4194 556.105 62.4194C559.913 62.4194 563 65.5245 563 69.3548Z" fill="white"/>
<path d="M580.994 79.0645C580.994 82.8949 577.907 86 574.098 86C570.29 86 567.203 82.8949 567.203 79.0645C567.203 75.2342 570.29 72.129 574.098 72.129C577.907 72.129 580.994 75.2342 580.994 79.0645Z" fill="white"/>
<path d="M600.301 79.0645C600.301 82.8949 597.214 86 593.406 86C589.597 86 586.51 82.8949 586.51 79.0645C586.51 75.2342 589.597 72.129 593.406 72.129C597.214 72.129 600.301 75.2342 600.301 79.0645Z" fill="white"/>
<path d="M619.609 69.3548C619.609 73.9513 615.904 77.6774 611.334 77.6774C606.764 77.6774 603.059 73.9513 603.059 69.3548C603.059 64.7584 606.764 61.0323 611.334 61.0323C615.904 61.0323 619.609 64.7584 619.609 69.3548Z" fill="white"/>
<path d="M631 47C631 52.5228 626.523 57 621 57C615.477 57 611 52.5228 611 47C611 41.4772 615.477 37 621 37C626.523 37 631 41.4772 631 47Z" fill="white"/>
<path d="M31.4194 78.0654C26.4653 78.0654 21.8589 77.4715 17.6001 76.2837C13.3703 75.0959 9.66195 73.5604 6.4751 71.6772C3.31722 69.7651 1.15885 68.1427 0 66.8101L6.95312 59.1616C7.30078 59.5382 8.66243 60.5667 11.0381 62.2471C13.4427 63.9274 16.3543 65.4049 19.7729 66.6797C23.1916 67.9544 27.0592 68.5918 31.376 68.5918C35.4609 68.5918 39.1258 67.9834 42.3706 66.7666C45.6444 65.5208 48.3097 63.9709 50.3667 62.1167C52.4526 60.2336 53.4956 58.3359 53.4956 56.4238C53.4956 53.9902 52.4671 52.2809 50.4102 51.2959C48.3822 50.3109 45.992 49.659 43.2397 49.3403C40.5164 48.9927 37.5179 48.7319 34.2441 48.5581C31.2021 48.4132 28.1022 48.1815 24.9443 47.8628C21.7865 47.5151 18.7734 46.9792 15.9053 46.2549C13.0371 45.5016 10.5166 44.4442 8.34375 43.0825C6.1709 41.7209 4.4471 39.9391 3.17236 37.7373C1.9266 35.5355 1.30371 32.6963 1.30371 29.2197C1.30371 25.888 2.46257 22.7157 4.78027 19.7026C7.12695 16.6606 10.5601 14.1691 15.0796 12.228C19.5991 10.258 25.0457 9.27295 31.4194 9.27295C36.3735 9.27295 40.7482 9.80892 44.5435 10.8809C48.3387 11.9528 51.6414 13.3579 54.4517 15.0962C57.2619 16.8055 59.203 18.2251 60.2749 19.355L53.2349 26.395C52.4237 25.6707 50.9896 24.6423 48.9326 23.3096C46.9046 21.9769 44.5 20.9049 41.7188 20.0938C38.9665 19.2536 35.6203 18.8335 31.6802 18.8335C26.6681 18.8335 21.9893 19.8475 17.6436 21.8755C13.3268 23.9035 11.1685 26.3516 11.1685 29.2197C11.1685 31.8561 12.2694 33.7537 14.4712 34.9126C16.673 36.0715 19.2804 36.8827 22.2935 37.3462C25.3065 37.8097 28.5947 38.2008 32.1582 38.5195C35.9245 38.8382 39.7052 39.2873 43.5005 39.8667C47.3247 40.4461 50.7723 41.3442 53.8433 42.561C56.9142 43.7778 59.3333 45.4727 61.1006 47.6455C62.8968 49.7894 63.7949 52.7155 63.7949 56.4238C63.7949 60.1032 62.5636 63.5798 60.1011 66.8535C57.6385 70.1273 53.9881 72.8216 49.1499 74.9365C44.3117 77.0225 38.4015 78.0654 31.4194 78.0654Z" fill="white"/>
<path d="M128.249 78.0654C120.166 78.0654 113.068 76.5589 106.955 73.5459C100.842 70.5329 96.0904 66.4479 92.7008 61.291C89.3111 56.1051 87.6163 50.2384 87.6163 43.6909C87.6163 37.1144 89.2822 31.2477 92.6139 26.0908C95.9456 20.9049 100.61 16.8055 106.607 13.7925C112.604 10.7795 119.586 9.27295 127.553 9.27295C132.768 9.27295 138.171 10.4463 143.763 12.793C149.354 15.1107 153.352 17.6167 155.757 20.311L148.717 28.3071C147.413 26.6558 144.733 24.8451 140.677 22.875C136.621 20.9049 132.145 19.9199 127.249 19.9199C121.889 19.9199 117.051 20.847 112.734 22.7012C108.418 24.5553 104.985 27.2642 102.435 30.8276C99.8857 34.3911 98.611 38.6789 98.611 43.6909C98.611 48.674 99.8857 52.9473 102.435 56.5107C104.985 60.0742 108.418 62.783 112.734 64.6372C117.051 66.4914 121.889 67.4185 127.249 67.4185C131.189 67.4185 135.274 66.6073 139.504 64.9849C143.763 63.3335 146.805 61.3924 148.63 59.1616L155.67 67.1577C152.367 70.3446 148.268 72.9665 143.372 75.0234C138.505 77.0514 133.464 78.0654 128.249 78.0654Z" fill="white"/>
<path d="M253.499 76.1533H241.635L234.204 60.8564H195.006L187.531 76.1533H175.667L208.173 11.1851H221.036L253.499 76.1533ZM229.597 51.3828L214.605 20.5283L199.612 51.3828H229.597Z" fill="white"/>
<path d="M334.597 76.1533H277.277V11.1851H288.662V66.6797H334.597V76.1533Z" fill="white"/>
<path d="M415.781 76.1533H358.461V11.1851H415.781V20.6587H369.847V38.9541H408.133V48.4277H369.847V66.6797H415.781V76.1533Z" fill="white"/>
<path d="M475.933 76.1533H439.646V11.1851H475.933C482.683 11.1851 488.81 12.5467 494.315 15.27C499.82 17.9644 504.18 21.7306 507.396 26.5688C510.64 31.4071 512.263 37.1144 512.263 43.6909C512.263 50.2384 510.64 55.9458 507.396 60.813C504.18 65.6512 499.82 69.4175 494.315 72.1118C488.81 74.8062 482.683 76.1533 475.933 76.1533ZM475.933 66.6797C480.51 66.6797 484.682 65.7381 488.448 63.855C492.215 61.9718 495.228 59.3065 497.487 55.8589C499.747 52.3823 500.877 48.3263 500.877 43.6909C500.877 39.0265 499.747 34.9705 497.487 31.5229C495.228 28.0464 492.215 25.3665 488.448 23.4834C484.682 21.6003 480.51 20.6587 475.933 20.6587H451.032V66.6797H475.933Z" fill="white"/>
</svg>
